<?xml version="1.0" encoding="UTF-8"?>
<svg id="Capa_2" data-name="Capa 2" xmlns="http://www.w3.org/2000/svg" viewBox="0 0 324.28 168.29">
  <defs>
    <style>
      .cls-1 {
        fill: #402667;
      }

      .cls-2 {
        fill: #152639;
      }

      .cls-3 {
        fill: #fff;
      }

      .cls-4 {
        fill: #812080;
      }

      .cls-5 {
        fill: #020202;
      }

      .cls-6 {
        fill: #de0e7f;
      }

      .cls-7 {
        fill: #e8edf9;
      }

      .cls-8 {
        fill: #121427;
      }
    </style>
  </defs>
  <g id="Capa_3" data-name="Capa 3">
    <g>
      <path class="cls-8" d="M21.43,110.47l31.68-8.5,2.93-63.86L211.74,8.49c1.64-.31,3.3.39,4.22,1.78l13.19,21.31c1.49,2.26,2.25,4.93,2.16,7.64l-2.99,97.15c-.08,2.55-1.99,4.68-4.51,5.03l-135.38,21.79c-1.01.14-2.03.14-3.04,0l-67.46-5.58,3.51-47.14Z"/>
      <g>
        <polygon class="cls-5" points="193.96 50.56 256.62 14.35 319.27 50.56 256.62 86.51 193.96 50.56"/>
        <path class="cls-4" d="M260.44,78.74l48.57-31.38v57.34l-63.49,35.84-51.55-29.74v-59.94c0-3.16,1.37-6.11,3.7-8.14l62.77,36.02Z"/>
        <path class="cls-6" d="M309.01,40.29v7.07l-48.57,31.38-62.77-36.02c.5-.43,1.04-.82,1.62-1.16l51.21-30.14c3.32-1.96,7.44-2,10.8-.09l15.45,8.78,32.26,20.18Z"/>
        <path class="cls-1" d="M237.48,135l63.49-35.84V9.13c0-3.16-3.41-5.15-6.16-3.58l-54.28,30.91c-1.88,1.07-3.05,3.07-3.05,5.24v93.31Z"/>
        <path class="cls-7" d="M245.51,140.55l63.49-35.84V14.67c0-3.16-3.41-5.15-6.16-3.58l-54.28,30.91c-1.88,1.07-3.05,3.07-3.05,5.24v93.31Z"/>
        <path class="cls-4" d="M304.88,10.54c2.15,0,4.13,1.72,4.13,4.13v90.04l-63.49,35.84V47.23c0-2.17,1.16-4.17,3.05-5.24l54.28-30.91c.66-.37,1.35-.55,2.03-.55M304.88,6.69c-1.37,0-2.73.36-3.94,1.05l-54.28,30.91c-3.08,1.75-4.99,5.04-4.99,8.59v99.91l5.74-3.24,63.49-35.84,1.96-1.1V14.67c0-4.4-3.58-7.98-7.98-7.98h0Z"/>
        <path class="cls-2" d="M319.28,50.56v61.09c0,6.91-3.71,13.28-9.71,16.69l-44.1,25.06c-2.75,1.56-5.79,2.39-8.85,2.48v-69.38l15.5-8.97c2.39-1.39,5.4.34,5.4,3.11v9.34c0,3.81,4.14,6.18,7.42,4.25l8.39-4.94c3.04-1.79,4.91-5.06,4.91-8.59v-16.19c0-1.3.7-2.5,1.83-3.13l19.21-10.82Z"/>
        <path class="cls-8" d="M256.62,86.5v69.38c-3.54.13-7.12-.73-10.29-2.58l-42.82-24.92c-5.91-3.44-9.54-9.76-9.54-16.6v-61.22l62.65,35.94Z"/>
      </g>
      <g>
        <path class="cls-8" d="M69.31,66.9c.84-9.42,1.03-11.64-1.67-11.64-.73,0-1.68.16-2.88.39l-1.62.31-2.17,24.49,1.62-.31c5.65-1.07,5.69-1.56,6.73-13.24Z"/>
        <path class="cls-8" d="M216.33,67.95c-.95-1.1-2.4-2.31-4.42-3.17.02-1.27-.25-2.54-.86-3.69l-9.8-18.63,13.37-21c.85-1.24,1.35-2.74,1.35-4.35,0-4.19-3.35-7.61-7.52-7.7-.06,0-.12,0-.18,0-.15,0-.3,0-.45.01-.39.02-.77.07-1.14.15l-16.59,3.14c-2.01.38-3.78,1.55-4.93,3.23-1.28-.87-2.79-1.33-4.33-1.33-.48,0-.96.04-1.43.13l-15.74,2.98c-1.12.21-2.13.68-3.01,1.31-.27,0-.51-.02-.8-.02-3.62,0-8.89,2.65-12.88,3.41-7.86,1.49-12.92,1.48-17,4.58-1.39-1.17-3.14-1.82-4.93-1.82-.48,0-.96.04-1.43.13l-33.89,6.42c-2.58.49-4.67,2.24-5.65,4.57-3.15-1.18-6.17-1.19-7.5-1.19h0c-3.21,0-7.15.46-12.4,1.46l-17.15,3.25c-3.38.64-5.93,3.45-6.24,6.89l-4.14,46.65c-1.57.13-3.15.33-4.61.59-20.11,3.62-23.16,15.02-25.79,33.36-1.64,11.44-2.42,19.99,2.53,25.69,2.75,3.18,6.78,4.79,11.96,4.79,2.06,0,4.4-.24,7.16-.74,3.88-.7,8.68-2.06,11.77-3.32.58.14,1.17.23,1.77.23.45,0,.91-.04,1.36-.12l27.04-4.87c.93-.17,1.78-.51,2.56-.97.46.09.93.14,1.41.14s.91-.04,1.36-.12l11.97-2.15c1.63-.29,3.07-1.09,4.17-2.22,1.02.49,2.15.75,3.31.75.45,0,.91-.04,1.37-.12l11.54-2.08c2.54-.46,4.62-2.15,5.64-4.43.04.05.07.1.12.14,1.45,1.4,3.37,2.16,5.35,2.16.45,0,.91-.04,1.36-.12l12.55-2.26c2.56-.46,4.65-2.18,5.66-4.48.06.06.09.13.15.18,1.45,1.4,3.37,2.16,5.35,2.16.45,0,.91-.04,1.36-.12l27.04-4.87c.93-.17,1.78-.51,2.56-.97.46.09.93.14,1.41.14s.91-.04,1.36-.12l12.55-2.26c1.1-.2,2.11-.63,2.99-1.23.61.15,1.24.23,1.87.23.45,0,.91-.04,1.36-.12l12.88-2.32c4.11-.74,6.88-4.62,6.25-8.74l-1.96-12.82c3.73-4.78,4.87-10.65,5.63-15.97.95-6.65,1.53-13.54-2.68-18.4Z"/>
        <path class="cls-8" d="M197.78,83.37c-.46,0-1.06.08-1.83.22l-2.2.4-1.38,9.6,2.25-.41c3.06-.55,3.52-.83,4.17-5.4.48-3.35.63-4.42-1.02-4.42Z"/>
      </g>
      <path class="cls-3" d="M48.49,46.89l17.17-3.14c21.48-3.93,21.21,1.01,19.42,19.82-1.79,18.81-2.46,23.82-23.94,27.75l-17.17,3.14,4.52-47.57ZM62.44,79.74c5.66-1.03,5.7-1.52,6.81-13.2,1.14-11.96,1.17-12.31-4.48-11.28l-1.62.3-2.33,24.48,1.62-.3Z"/>
      <path class="cls-3" d="M91.24,39.07l33.93-6.21-1.1,11.54-18.25,3.34-.6,6.36,15.08-2.76-1.07,11.27-15.08,2.76-.65,6.85,18.25-3.34-1.1,11.55-33.93,6.21,4.52-47.57Z"/>
      <path class="cls-3" d="M126.6,55.97c1.77-18.67,4.47-24.73,22.51-28.03,4.24-.78,9.37-1.17,12.4-.97l-1.02,10.78c-5.42.59-7.49.83-8.77,1.06-8.08,1.48-8.18,2.59-9.29,14.27-1.12,11.76-1.22,12.79,6.86,11.31,2.69-.49,6.48-1.39,9.14-2.21l-1.05,11c-3.09,1.17-8.52,2.64-12.9,3.44-18.04,3.3-19.66-1.98-17.88-20.65Z"/>
      <path class="cls-3" d="M80.51,93.57l12.82-2.31,4.6,16.82.38-.07,2.59-18.11,11.97-2.15-6.71,46.85-11.54,2.08-5.4-20.32-.32.06-3.13,21.86-11.97,2.15,6.71-46.85Z"/>
      <path class="cls-3" d="M165.27,25.53l15.75-2.88-1.69,17.77.67-.12,11.72-19.6,16.77-3.07-16.06,24.88,11.74,22.65-17.17,3.14-8.07-16.73-.67.12-1.76,18.53-15.75,2.88,4.52-47.57Z"/>
      <path class="cls-3" d="M13.85,128.39c2.63-18.39,5.15-24.28,19.53-26.87,3.38-.61,7.43-.8,9.8-.5l-1.52,10.62c-4.29.38-5.93.54-6.95.72-6.44,1.16-6.59,2.25-8.24,13.76s-1.8,12.6,4.63,11.44c2.15-.39,5.18-1.13,7.32-1.85l-1.55,10.83c-2.5,1.04-6.86,2.29-10.35,2.92-14.38,2.59-15.3-2.69-12.66-21.07Z"/>
      <path class="cls-3" d="M48.13,99.4l27.04-4.87-1.63,11.37-14.54,2.62-.9,6.27,12.02-2.16-1.59,11.1-12.02,2.16-.97,6.74,14.54-2.62-1.63,11.37-27.04,4.87,6.71-46.85Z"/>
      <path class="cls-3" d="M123.62,97.48l-9.02,1.62,1.72-11.98,30.64-5.52-1.72,11.98-9.07,1.63-4.99,34.87-12.56,2.26,4.99-34.87Z"/>
      <path class="cls-3" d="M150.41,80.98l27.04-4.87-1.63,11.37-14.54,2.62-.9,6.27,12.02-2.16-1.59,11.1-12.02,2.16-.97,6.74,14.54-2.62-1.63,11.37-27.04,4.87,6.71-46.85Z"/>
      <path class="cls-3" d="M182.78,75.15l19.42-3.5c9.93-1.79,10.7,3.05,9.19,13.6-.92,6.4-2.19,11.27-6.2,14.45l2.54,16.59-12.88,2.32-1.47-14.93-2.52.45-2.23,15.59-12.56,2.26,6.71-46.85ZM194.63,93.18c3.06-.55,3.52-.83,4.17-5.4.61-4.29.69-4.84-2.85-4.2l-2.2.4-1.38,9.6,2.25-.41Z"/>
      <path class="cls-3" d="M296.84,5c1.74,0,3.37,1.13,3.92,2.84l.18-.1c1.21-.69,2.57-1.05,3.94-1.05,4.4,0,7.98,3.58,7.98,7.98v32.18l6.42,3.71-.51.29.51-.29v61.09c0,6.91-3.71,13.28-9.71,16.69l-44.1,25.06c-2.75,1.56-5.79,2.39-8.85,2.48-.23,0-.46.01-.7.01-3.31,0-6.63-.86-9.59-2.59l-21.16-12.32c-.43.19-.88.34-1.36.4l-135.38,21.79c-.5.07-1.01.1-1.51.1s-1.02-.04-1.53-.11l-66.05-5.46c-.34-.02-.67-.05-.99-.08l-.42-.03v-.02c-3.85-.49-6.93-2.02-9.17-4.6-4.95-5.71-4.17-14.25-2.53-25.69,2.63-18.34,5.67-29.73,25.79-33.35,1.46-.26,3.03-.46,4.61-.59l4.14-46.65c.3-3.43,2.85-6.24,6.24-6.89l9.1-1.72L211.74,8.49c.26-.05.52-.07.77-.07,1.37,0,2.67.68,3.45,1.86l9.74,15.75,24.8-14.59c1.69-1,3.58-1.5,5.48-1.5s3.67.47,5.32,1.41l11.68,6.64,21.83-12.43c.66-.37,1.35-.54,2.03-.54M296.84,0h0c-1.57,0-3.12.41-4.5,1.2l-19.36,11.02-9.21-5.23c-2.37-1.35-5.06-2.06-7.79-2.06s-5.59.76-8.02,2.19l-20.57,12.11-7.17-11.59s-.05-.08-.08-.12c-1.69-2.57-4.54-4.1-7.62-4.1-.57,0-1.15.05-1.71.16L55.16,33.18l-9.09,1.72c-5.56,1.05-9.79,5.72-10.29,11.36l-3.78,42.61c-.29.05-.58.1-.87.15-10.93,1.97-18.16,6.22-22.77,13.37-4.29,6.67-5.8,15.25-7.08,24.19-1.77,12.35-2.62,22.38,3.7,29.68,2.95,3.41,6.93,5.5,11.83,6.22.23.05.46.09.7.11l.36.03c.36.04.73.07,1.11.09l65.87,5.44c.68.09,1.38.13,2.07.13.73,0,1.48-.05,2.2-.15.03,0,.07-.01.1-.02l135.22-21.77,19.37,11.27c3.67,2.14,7.85,3.27,12.11,3.27.29,0,.59,0,.88-.02,3.86-.11,7.73-1.2,11.13-3.13l44.1-25.06c7.55-4.29,12.24-12.35,12.24-21.04v-61.09c0-.49-.07-.97-.21-1.43-.36-1.21-1.17-2.26-2.29-2.91l-3.92-2.27V14.67c0-7.16-5.82-12.98-12.98-12.98-.82,0-1.63.08-2.43.23-1.56-1.22-3.52-1.92-5.62-1.92h0Z"/>
    </g>
  </g>
</svg>