<?xml version="1.0" encoding="UTF-8"?>
<svg id="Capa_2" data-name="Capa 2" xmlns="http://www.w3.org/2000/svg" viewBox="0 0 39.83 47.55">
  <defs>
    <style>
      .cls-1 {
        fill: #402667;
      }

      .cls-2 {
        fill: #152639;
      }

      .cls-3 {
        fill: #fff;
      }

      .cls-4 {
        fill: #812080;
      }

      .cls-5 {
        fill: #020202;
      }

      .cls-6 {
        fill: #de0e7f;
      }

      .cls-7 {
        fill: #e8edf9;
      }

      .cls-8 {
        fill: #121427;
      }
    </style>
  </defs>
  <g id="Capa_3" data-name="Capa 3">
    <g>
      <polygon class="cls-5" points="1 14.75 19.91 3.82 38.83 14.75 19.91 25.6 1 14.75"/>
      <path class="cls-4" d="M21.07,23.26l14.66-9.47v17.31l-19.17,10.82L1,32.94V14.84c0-.95.41-1.84,1.12-2.46l18.95,10.87Z"/>
      <path class="cls-6" d="M35.73,11.65v2.13l-14.66,9.47L2.12,12.39c.15-.13.31-.25.49-.35L18.06,2.94c1-.59,2.25-.6,3.26-.03l4.66,2.65,9.74,6.09Z"/>
      <path class="cls-1" d="M14.13,40.24l19.17-10.82V2.25c0-.95-1.03-1.55-1.86-1.08L15.05,10.49c-.57.32-.92.93-.92,1.58v28.17Z"/>
      <path class="cls-7" d="M16.56,41.92l19.17-10.82V3.92c0-.95-1.03-1.55-1.86-1.08l-16.39,9.33c-.57.32-.92.93-.92,1.58v28.17Z"/>
      <path class="cls-4" d="M34.48,2.67c.65,0,1.25.52,1.25,1.25v27.18l-19.17,10.82V13.75c0-.65.35-1.26.92-1.58L33.87,2.84c.2-.11.41-.16.61-.16M34.48,1.51c-.41,0-.82.11-1.19.32l-16.39,9.33c-.93.53-1.51,1.52-1.51,2.59v30.16l1.73-.98,19.17-10.82.59-.33V3.92c0-1.33-1.08-2.41-2.41-2.41h0Z"/>
      <path class="cls-2" d="M38.83,14.75v18.44c0,2.09-1.12,4.01-2.93,5.04l-13.31,7.56c-.83.47-1.75.72-2.67.75v-20.94l4.68-2.71c.72-.42,1.63.1,1.63.94v2.82c0,1.15,1.25,1.87,2.24,1.28l2.53-1.49c.92-.54,1.48-1.53,1.48-2.59v-4.89c0-.39.21-.75.55-.94l5.8-3.27Z"/>
      <path class="cls-8" d="M19.91,25.6v20.94c-1.07.04-2.15-.22-3.11-.78l-12.93-7.52c-1.78-1.04-2.88-2.95-2.88-5.01V14.75l18.91,10.85Z"/>
    </g>
    <path class="cls-3" d="M32.05,1c.53,0,1.02.34,1.18.86l.06-.03c.36-.21.78-.32,1.19-.32,1.33,0,2.41,1.08,2.41,2.41v9.72l1.94,1.12-.15.09.15-.09v18.44c0,2.09-1.12,4.01-2.93,5.04l-13.31,7.56c-.83.47-1.75.72-2.67.75-.07,0-.14,0-.21,0-1,0-2-.26-2.9-.78l-12.93-7.52c-1.78-1.04-2.88-2.95-2.88-5.01V14.75h0s0,0,0,0h0s.01-.01.01-.01c.03-.92.43-1.77,1.11-2.36.15-.13.31-.25.49-.35L18.06,2.94c.51-.3,1.08-.45,1.65-.45s1.11.14,1.61.42l3.53,2,6.59-3.75c.2-.11.41-.16.61-.16M32.05,0s0,0,0,0c-.38,0-.77.1-1.11.3l-6.09,3.47-3.03-1.72c-.64-.36-1.37-.55-2.1-.55s-1.51.2-2.16.59L2.1,11.18c-.22.13-.43.28-.63.45C.61,12.37.09,13.43.02,14.57c-.01.06-.02.12-.02.19v18.48c0,2.41,1.29,4.66,3.38,5.88l12.93,7.52c1.03.6,2.2.92,3.4.92.08,0,.16,0,.25,0,1.09-.03,2.17-.34,3.13-.88l13.31-7.57c2.12-1.21,3.44-3.47,3.44-5.91V14.75c0-.1-.01-.19-.04-.28-.07-.24-.23-.46-.46-.59l-1.44-.83V3.92c0-1.88-1.53-3.41-3.41-3.41-.29,0-.59.04-.87.12-.41-.39-.96-.62-1.56-.63h0Z"/>
  </g>
</svg>